G04 MADE WITH FRITZING*
G04 WWW.FRITZING.ORG*
G04 DOUBLE SIDED*
G04 HOLES PLATED*
G04 CONTOUR ON CENTER OF CONTOUR VECTOR*
%ASAXBY*%
%FSLAX23Y23*%
%MOIN*%
%OFA0B0*%
%SFA1.0B1.0*%
%ADD10C,0.078000*%
%ADD11C,0.066604*%
%ADD12C,0.066632*%
%ADD13C,0.065993*%
%ADD14C,0.074000*%
%ADD15C,0.082000*%
%ADD16C,0.075000*%
%ADD17C,0.039370*%
%ADD18R,0.074000X0.074000*%
%ADD19R,0.078000X0.078000*%
%ADD20C,0.024000*%
%LNCOPPER0*%
G90*
G70*
G54D10*
X448Y2366D03*
X548Y2366D03*
X648Y2366D03*
X748Y2366D03*
X848Y2366D03*
X948Y2366D03*
X1048Y2366D03*
X1148Y2366D03*
G54D11*
X3548Y166D03*
X3648Y166D03*
X3748Y166D03*
X3848Y166D03*
G54D12*
X2188Y2066D03*
G54D11*
X3948Y166D03*
X4048Y166D03*
X4148Y166D03*
G54D13*
X4348Y1166D03*
G54D11*
X2548Y166D03*
X2648Y166D03*
X1948Y166D03*
X2748Y166D03*
X2848Y166D03*
X2948Y166D03*
X3048Y166D03*
X3148Y166D03*
G54D13*
X4348Y1966D03*
G54D11*
X3248Y166D03*
G54D13*
X4348Y366D03*
G54D12*
X2748Y2066D03*
G54D13*
X4348Y1566D03*
X4348Y766D03*
G54D12*
X1788Y2066D03*
G54D11*
X2348Y166D03*
G54D12*
X2348Y2066D03*
G54D13*
X4348Y1766D03*
X4348Y1366D03*
X4348Y966D03*
X4348Y566D03*
G54D12*
X3948Y2066D03*
X3848Y2066D03*
X3748Y2066D03*
X1588Y2066D03*
X3648Y2066D03*
X1988Y2066D03*
X3548Y2066D03*
X3448Y2066D03*
X3348Y2066D03*
X3248Y2066D03*
G54D11*
X1748Y166D03*
X2148Y166D03*
G54D12*
X2948Y2066D03*
X2548Y2066D03*
G54D13*
X4348Y2066D03*
X4348Y1866D03*
X4348Y1666D03*
X4348Y1466D03*
X4348Y1266D03*
X4348Y1066D03*
X4348Y866D03*
X4348Y666D03*
X4348Y466D03*
G54D12*
X1488Y2066D03*
X1688Y2066D03*
X1888Y2066D03*
X2088Y2066D03*
G54D11*
X1648Y166D03*
X1848Y166D03*
X2048Y166D03*
X2248Y166D03*
G54D12*
X3048Y2066D03*
X2848Y2066D03*
X2648Y2066D03*
X2448Y2066D03*
G54D13*
X4248Y2066D03*
X4248Y1966D03*
X4248Y1866D03*
X4248Y1766D03*
X4248Y1666D03*
X4248Y1566D03*
X4248Y1466D03*
X4248Y1366D03*
X4248Y1266D03*
X4248Y1166D03*
X4248Y1066D03*
X4248Y966D03*
X4248Y866D03*
X4248Y766D03*
X4248Y666D03*
X4248Y566D03*
X4248Y466D03*
X4248Y366D03*
G54D11*
X3448Y166D03*
G54D14*
X3648Y1266D03*
X3648Y1166D03*
X3648Y1066D03*
X3648Y966D03*
X3548Y1266D03*
X3548Y1166D03*
X3548Y1066D03*
X3548Y966D03*
G54D10*
X548Y966D03*
X648Y966D03*
X748Y966D03*
X848Y966D03*
X948Y966D03*
X1048Y966D03*
X748Y266D03*
G54D15*
X948Y166D03*
X1049Y266D03*
X1148Y166D03*
X1148Y366D03*
X948Y366D03*
G54D10*
X3348Y2566D03*
X3448Y2566D03*
X3548Y2566D03*
X3648Y2566D03*
X1548Y866D03*
X1648Y866D03*
X1748Y866D03*
G54D16*
X2148Y1066D03*
X2548Y1066D03*
G54D10*
X2048Y2566D03*
X2148Y2566D03*
X2248Y2566D03*
X2348Y2566D03*
X1548Y1366D03*
X1648Y1366D03*
X1748Y1366D03*
X198Y216D03*
X198Y216D03*
X298Y216D03*
G54D17*
X3048Y1566D03*
X3148Y1766D03*
X3647Y666D03*
X2948Y1566D03*
X3348Y2166D03*
X3348Y2366D03*
G54D18*
X3548Y1266D03*
G54D19*
X748Y266D03*
G54D20*
X747Y866D02*
X662Y953D01*
D02*
X1529Y866D02*
X747Y866D01*
D02*
X847Y267D02*
X767Y267D01*
D02*
X1028Y267D02*
X847Y267D01*
D02*
X548Y366D02*
X548Y947D01*
D02*
X731Y275D02*
X548Y366D01*
D02*
X648Y985D02*
X647Y2168D01*
D02*
X647Y2168D02*
X462Y2353D01*
D02*
X1346Y2266D02*
X646Y2266D01*
D02*
X646Y2266D02*
X562Y2353D01*
D02*
X1574Y2079D02*
X1346Y2266D01*
D02*
X2247Y66D02*
X2335Y153D01*
D02*
X248Y66D02*
X2247Y66D01*
D02*
X204Y198D02*
X248Y66D01*
D02*
X1549Y1967D02*
X1581Y2049D01*
D02*
X1548Y1766D02*
X1549Y1967D01*
D02*
X1548Y1385D02*
X1548Y1766D01*
D02*
X1648Y1066D02*
X1554Y1348D01*
D02*
X1648Y885D02*
X1648Y1066D01*
D02*
X3748Y1767D02*
X3748Y2047D01*
D02*
X3156Y1766D02*
X3748Y1767D01*
D02*
X3849Y1466D02*
X3849Y1167D01*
D02*
X3849Y1167D02*
X4230Y1166D01*
D02*
X2549Y1466D02*
X3849Y1466D01*
D02*
X2548Y1084D02*
X2549Y1466D01*
D02*
X3847Y368D02*
X3647Y368D01*
D02*
X3847Y1066D02*
X3847Y368D01*
D02*
X1950Y368D02*
X1948Y185D01*
D02*
X3647Y368D02*
X1950Y368D01*
D02*
X3668Y1066D02*
X3847Y1066D01*
D02*
X3748Y1066D02*
X3668Y1066D01*
D02*
X3748Y1268D02*
X3748Y1066D01*
D02*
X3668Y1267D02*
X3748Y1268D01*
D02*
X2948Y1574D02*
X2948Y2047D01*
D02*
X3648Y946D02*
X3647Y674D01*
D02*
X3048Y1766D02*
X3048Y2047D01*
D02*
X3048Y1574D02*
X3048Y1766D01*
D02*
X2549Y865D02*
X1767Y866D01*
D02*
X2548Y1049D02*
X2549Y865D01*
D02*
X1635Y880D02*
X1549Y966D01*
D02*
X1549Y966D02*
X1067Y966D01*
D02*
X2147Y1166D02*
X2148Y1084D01*
D02*
X1847Y1166D02*
X2147Y1166D01*
D02*
X1757Y1349D02*
X1847Y1166D01*
D02*
X3448Y2547D02*
X3448Y2366D01*
D02*
X3448Y2366D02*
X3448Y2085D01*
D02*
X3548Y2366D02*
X3548Y2085D01*
D02*
X3548Y2547D02*
X3548Y2366D01*
D02*
X4249Y2666D02*
X3348Y2666D01*
D02*
X3348Y2666D02*
X3348Y2585D01*
D02*
X4248Y2085D02*
X4249Y2666D01*
D02*
X3248Y2566D02*
X3248Y2666D01*
D02*
X3248Y2666D02*
X2249Y2666D01*
D02*
X2249Y2666D02*
X2248Y2585D01*
D02*
X3329Y2566D02*
X3248Y2566D01*
D02*
X2048Y2166D02*
X2048Y2547D01*
D02*
X3340Y2166D02*
X2048Y2166D01*
D02*
X749Y2566D02*
X748Y2385D01*
D02*
X2029Y2566D02*
X749Y2566D01*
D02*
X2148Y2666D02*
X2148Y2585D01*
D02*
X649Y2666D02*
X2148Y2666D01*
D02*
X648Y2385D02*
X649Y2666D01*
D02*
X2148Y2547D02*
X2148Y2367D01*
D02*
X2148Y2367D02*
X3340Y2366D01*
G04 End of Copper0*
M02*