; NON-PLATED HOLES START AT T1
; THROUGH (PLATED) HOLES START AT T100
M48
INCH
T1C0.196850
T100C0.038007
T101C0.037396
T102C0.035000
T103C0.042000
T104C0.038000
T105C0.040000
T106C0.015748
T107C0.038035
%
T1
X044482Y001663
X044482Y025663
X001482Y025663
X001482Y004663
T100
X028482Y001664
X022482Y001664
X039482Y001664
X040482Y001664
X034482Y001664
X036482Y001664
X030482Y001664
X018482Y001664
X041482Y001664
X020482Y001664
X025482Y001664
X032482Y001664
X035482Y001664
X016482Y001664
X031482Y001664
X038482Y001664
X017482Y001664
X037482Y001664
X019482Y001664
X021482Y001664
X027482Y001664
X029482Y001664
X026482Y001664
X023482Y001664
T101
X042482Y003664
X042482Y011663
X042482Y017663
X043482Y015663
X042482Y008663
X043482Y004664
X042482Y005664
X042482Y015663
X043482Y010663
X042482Y013663
X043482Y009663
X043482Y007663
X042482Y007663
X042482Y010663
X042482Y006664
X042482Y014663
X042482Y016663
X043482Y020663
X042482Y012663
X043482Y011663
X043482Y017663
X043482Y018663
X042482Y019663
X043482Y014663
X042482Y004664
X043482Y012663
X043482Y006664
X043482Y003664
X043482Y005664
X042482Y009663
X043482Y019663
X043482Y016663
X043482Y013663
X043482Y008663
X042482Y018663
X042482Y020663
T102
X025482Y010663
X021482Y010663
T103
X009482Y001664
X011482Y003664
X009482Y003664
X010486Y002664
X011482Y001664
T104
X006482Y023663
X001982Y002163
X034482Y025663
X008482Y009663
X008482Y023663
X020482Y025663
X010482Y023663
X017482Y013663
X021482Y025663
X006482Y009663
X002982Y002163
X022482Y025663
X005482Y009663
X017482Y008663
X036482Y025663
X007482Y009663
X035482Y025663
X011482Y023663
X009482Y009663
X007482Y023663
X016482Y008663
X016482Y013663
X005482Y023663
X015482Y013663
X007482Y002663
X015482Y008663
X010482Y009663
X023482Y025663
X033482Y025663
X004482Y023663
X009482Y023663
T105
X035482Y011663
X035482Y010663
X036482Y009663
X035482Y009663
X036482Y011663
X036482Y012663
X035482Y012663
X036482Y010663
T106
X031482Y017663
X030482Y015663
X033482Y021663
X036470Y006656
X029482Y015663
X033482Y023663
T107
X027482Y020663
X032482Y020663
X029482Y020663
X026482Y020663
X019882Y020663
X030482Y020663
X037482Y020663
X016882Y020663
X033482Y020663
X039482Y020663
X017882Y020663
X014882Y020663
X024482Y020663
X038482Y020663
X018882Y020663
X015882Y020663
X034482Y020663
X023482Y020663
X028482Y020663
X020882Y020663
X025482Y020663
X035482Y020663
X036482Y020663
X021882Y020663
T00
M30
