G04 MADE WITH FRITZING*
G04 WWW.FRITZING.ORG*
G04 DOUBLE SIDED*
G04 HOLES PLATED*
G04 CONTOUR ON CENTER OF CONTOUR VECTOR*
%ASAXBY*%
%FSLAX23Y23*%
%MOIN*%
%OFA0B0*%
%SFA1.0B1.0*%
%ADD10C,0.088000*%
%ADD11C,0.076604*%
%ADD12C,0.076632*%
%ADD13C,0.075993*%
%ADD14C,0.084000*%
%ADD15C,0.092000*%
%ADD16C,0.085000*%
%ADD17C,0.049370*%
%ADD18C,0.206850*%
%ADD19R,0.084000X0.084000*%
%ADD20R,0.088000X0.088000*%
%LNMASK0*%
G90*
G70*
G54D10*
X448Y2366D03*
X548Y2366D03*
X648Y2366D03*
X748Y2366D03*
X848Y2366D03*
X948Y2366D03*
X1048Y2366D03*
X1148Y2366D03*
G54D11*
X3548Y166D03*
X3648Y166D03*
X3748Y166D03*
X3848Y166D03*
G54D12*
X2188Y2066D03*
G54D11*
X3948Y166D03*
X4048Y166D03*
X4148Y166D03*
G54D13*
X4348Y1166D03*
G54D11*
X2548Y166D03*
X2648Y166D03*
X1948Y166D03*
X2748Y166D03*
X2848Y166D03*
X2948Y166D03*
X3048Y166D03*
X3148Y166D03*
G54D13*
X4348Y1966D03*
G54D11*
X3248Y166D03*
G54D13*
X4348Y366D03*
G54D12*
X2748Y2066D03*
G54D13*
X4348Y1566D03*
X4348Y766D03*
G54D12*
X1788Y2066D03*
G54D11*
X2348Y166D03*
G54D12*
X2348Y2066D03*
G54D13*
X4348Y1766D03*
X4348Y1366D03*
X4348Y966D03*
X4348Y566D03*
G54D12*
X3948Y2066D03*
X3848Y2066D03*
X3748Y2066D03*
X1588Y2066D03*
X3648Y2066D03*
X1988Y2066D03*
X3548Y2066D03*
X3448Y2066D03*
X3348Y2066D03*
X3248Y2066D03*
G54D11*
X1748Y166D03*
X2148Y166D03*
G54D12*
X2948Y2066D03*
X2548Y2066D03*
G54D13*
X4348Y2066D03*
X4348Y1866D03*
X4348Y1666D03*
X4348Y1466D03*
X4348Y1266D03*
X4348Y1066D03*
X4348Y866D03*
X4348Y666D03*
X4348Y466D03*
G54D12*
X1488Y2066D03*
X1688Y2066D03*
X1888Y2066D03*
X2088Y2066D03*
G54D11*
X1648Y166D03*
X1848Y166D03*
X2048Y166D03*
X2248Y166D03*
G54D12*
X3048Y2066D03*
X2848Y2066D03*
X2648Y2066D03*
X2448Y2066D03*
G54D13*
X4248Y2066D03*
X4248Y1966D03*
X4248Y1866D03*
X4248Y1766D03*
X4248Y1666D03*
X4248Y1566D03*
X4248Y1466D03*
X4248Y1366D03*
X4248Y1266D03*
X4248Y1166D03*
X4248Y1066D03*
X4248Y966D03*
X4248Y866D03*
X4248Y766D03*
X4248Y666D03*
X4248Y566D03*
X4248Y466D03*
X4248Y366D03*
G54D11*
X3448Y166D03*
G54D14*
X3648Y1266D03*
X3648Y1166D03*
X3648Y1066D03*
X3648Y966D03*
X3548Y1266D03*
X3548Y1166D03*
X3548Y1066D03*
X3548Y966D03*
G54D10*
X548Y966D03*
X648Y966D03*
X748Y966D03*
X848Y966D03*
X948Y966D03*
X1048Y966D03*
X748Y266D03*
G54D15*
X948Y166D03*
X1049Y266D03*
X1148Y166D03*
X1148Y366D03*
X948Y366D03*
G54D10*
X3348Y2566D03*
X3448Y2566D03*
X3548Y2566D03*
X3648Y2566D03*
X1548Y866D03*
X1648Y866D03*
X1748Y866D03*
G54D16*
X2148Y1066D03*
X2548Y1066D03*
G54D10*
X2048Y2566D03*
X2148Y2566D03*
X2248Y2566D03*
X2348Y2566D03*
X1548Y1366D03*
X1648Y1366D03*
X1748Y1366D03*
X198Y216D03*
X198Y216D03*
X298Y216D03*
G54D17*
X3048Y1566D03*
X3148Y1766D03*
X3647Y666D03*
X2948Y1566D03*
X3348Y2166D03*
X3348Y2366D03*
G54D18*
X4448Y2566D03*
X4448Y166D03*
X148Y2566D03*
X148Y466D03*
G54D19*
X3548Y1266D03*
G54D20*
X748Y266D03*
G04 End of Mask0*
M02*